<svg width="44" height="45" viewBox="0 0 44 45" fill="none" xmlns="http://www.w3.org/2000/svg">
<g clip-path="url(#clip0_29_38)">
<path d="M30.25 0H13.75C6.15725 0 0 6.29719 0 14.0625V30.9375C0 38.7028 6.15725 45 13.75 45H30.25C37.8428 45 44 38.7028 44 30.9375V14.0625C44 6.29719 37.8428 0 30.25 0ZM39.875 30.9375C39.875 36.3656 35.5575 40.7812 30.25 40.7812H13.75C8.4425 40.7812 4.125 36.3656 4.125 30.9375V14.0625C4.125 8.63438 8.4425 4.21875 13.75 4.21875H30.25C35.5575 4.21875 39.875 8.63438 39.875 14.0625V30.9375Z" fill="#3F2A15"/>
<path d="M22 11.25C15.9252 11.25 11 16.2872 11 22.5C11 28.7128 15.9252 33.75 22 33.75C28.0748 33.75 33 28.7128 33 22.5C33 16.2872 28.0748 11.25 22 11.25ZM22 29.5312C18.2105 29.5312 15.125 26.3756 15.125 22.5C15.125 18.6216 18.2105 15.4688 22 15.4688C25.7895 15.4688 28.875 18.6216 28.875 22.5C28.875 26.3756 25.7895 29.5312 22 29.5312Z" fill="#3F2A15"/>
<path d="M33.8251 11.9051C34.6346 11.9051 35.2909 11.234 35.2909 10.406C35.2909 9.57814 34.6346 8.90698 33.8251 8.90698C33.0156 8.90698 32.3594 9.57814 32.3594 10.406C32.3594 11.234 33.0156 11.9051 33.8251 11.9051Z" fill="#3F2A15"/>
</g>
<defs>
<clipPath id="clip0_29_38">
<rect width="44" height="45" fill="white"/>
</clipPath>
</defs>
</svg>
